<svg width="200" height="66" viewBox="0 0 200 66" fill="none" xmlns="http://www.w3.org/2000/svg">
<path d="M17.5971 23.1046C20.1941 23.1046 22.5449 23.7314 24.6494 24.9852C26.7538 26.2389 28.4106 28.0076 29.6195 30.2912C30.8285 32.53 31.433 35.127 31.433 38.0822C31.433 40.9927 30.7837 43.5673 29.4852 45.8062C28.1867 48.0002 26.3956 49.7017 24.112 50.9107C21.8284 52.1196 19.2762 52.7241 16.4553 52.7241C14.4404 52.7241 12.515 52.2987 10.6791 51.448C8.84332 50.5524 7.3657 49.3659 6.2463 47.8883V65.4182H0V23.7762H5.44032L5.97764 28.4777C7.41048 26.8658 9.11198 25.5673 11.0821 24.5822C13.0971 23.5971 15.2687 23.1046 17.5971 23.1046ZM15.2463 47.6868C16.9926 47.6868 18.6046 47.2838 20.0822 46.4778C21.6046 45.6271 22.8135 44.4853 23.7091 43.0524C24.6046 41.5748 25.0523 39.9405 25.0523 38.1494C25.0523 36.3136 24.627 34.6569 23.7762 33.1792C22.9702 31.7016 21.8508 30.5374 20.418 29.6867C18.9852 28.8359 17.3956 28.4106 15.6493 28.4106C13.2762 28.4106 11.2389 29.0822 9.53735 30.4255C7.88063 31.724 6.78361 33.4927 6.2463 35.7315V40.3658C6.60451 42.5151 7.61197 44.2838 9.2687 45.6718C10.9702 47.0151 12.9627 47.6868 15.2463 47.6868Z" fill="#111111"/>
<path d="M68.3582 24.2464V52.0525H62.1119V47.4853C61.1268 48.7838 59.694 49.9927 57.8134 51.1122C55.9328 52.1868 53.8059 52.7241 51.4328 52.7241C48.791 52.7241 46.3954 52.1644 44.2462 51.045C42.1417 49.8808 40.4626 48.2017 39.2088 46.0077C37.9999 43.8136 37.3954 41.1942 37.3954 38.1494C37.3954 35.1046 38.0223 32.4628 39.276 30.224C40.5745 27.9404 42.2984 26.1941 44.4477 24.9852C46.6417 23.7314 49.0596 23.1046 51.7014 23.1046C54.0746 23.1046 56.1343 23.6195 57.8805 24.6494C59.6268 25.6792 61.0373 27.0225 62.1119 28.6792L62.5821 24.2464H68.3582ZM53.1119 47.5524C55.3955 47.5524 57.3432 46.9256 58.9552 45.6718C60.6119 44.3733 61.6641 42.627 62.1119 40.433V34.9255C61.5746 32.9554 60.4552 31.3658 58.7537 30.1568C57.0522 28.9031 55.1044 28.2762 52.9104 28.2762C51.2537 28.2762 49.7089 28.6792 48.276 29.4852C46.888 30.2912 45.7686 31.433 44.9178 32.9106C44.1118 34.3434 43.7088 35.9778 43.7088 37.8136C43.7088 39.6046 44.1342 41.239 44.985 42.7166C45.8357 44.1942 46.9775 45.3808 48.4104 46.2763C49.8432 47.1271 51.4104 47.5524 53.1119 47.5524Z" fill="#111111"/>
<path d="M85.4794 0V52.0525H79.2331V0H85.4794Z" fill="#111111"/>
<path d="M105.352 12.0224V24.3135H112.942V29.2837H105.352V52.0525H99.0387V29.2837H93.9342V24.3135H99.0387V12.0224H105.352Z" fill="#111111"/>
<path d="M200 0V52.0525H193.754V0H200Z" fill="#111111"/>
<rect x="154.075" y="21.8284" width="30.224" height="30.224" fill="#549EC0"/>
<rect x="117.135" y="21.8284" width="30.224" height="30.224" fill="#FF7000"/>
<rect x="117.135" y="36.9404" width="15.112" height="15.112" fill="#FF4300"/>
<rect x="117.135" y="21.8284" width="15.112" height="15.112" fill="#FF7000"/>
<rect x="132.247" y="21.8284" width="15.112" height="15.112" fill="#FF5900"/>
<rect x="132.247" y="36.9404" width="15.112" height="15.112" fill="#FF2C00"/>
<rect x="154.075" y="36.9404" width="15.112" height="15.112" fill="#2C78A8"/>
<rect x="154.075" y="21.8284" width="15.112" height="15.112" fill="#549EC0"/>
<rect x="169.187" y="21.8284" width="15.112" height="15.112" fill="#408BB4"/>
<rect x="169.187" y="36.9404" width="15.112" height="15.112" fill="#206C9C"/>
</svg>
